# xmcd
# Track frame offsets:
# 225
# 14578
# 28712
# 45264
# 59628
# 78230
# 97065
# 114738
# 129355
# 144548
# 160741
# 175973
# 191511
# 204542
# 216270
# 231917
# 247078
# 263088
# 280151
# 295892
#
# Disc length: 4113 seconds
# Revision: 0
# Processed by: cddbd v1.5.2PL0 Copyright (c) Steve Scherf et al.
# Submitted via: VisiTrax 2.10.3.257 - For more info visit www.synapsa.com
#
DISCID=2c100e14
DTITLE=Kevin Collins - The Collection
DYEAR=2006
DGENRE=
TTITLE0=Jump In And Swim
TTITLE1=Set Us Free
TTITLE2=The Photograph
TTITLE3=This Is My Home
TTITLE4=Tomb of the Unknown Grave
TTITLE5=Emigrants Farewell
TTITLE6=From An Island To An Island
TTITLE7=My Old Homestead
TTITLE8=Long Gone Are The Days
TTITLE9=Farside Banks of the Jordan
TTITLE10=Rose From the Garden of Prayer
TTITLE11=Take These Chains
TTITLE12=Invitation To The Blues
TTITLE13=Mockingbird Hill
TTITLE14=Golden Years
TTITLE15=I Still Miss Someone
TTITLE16=Be Nice To The People
TTITLE17=You Can't Turn Back The Years
TTITLE18=Siz Days On The Road
TTITLE19=Road That Never Ends
EXTD=
EXTT0=
EXTT1=
EXTT2=
EXTT3=
EXTT4=
EXTT5=
EXTT6=
EXTT7=
EXTT8=
EXTT9=
EXTT10=
EXTT11=
EXTT12=
EXTT13=
EXTT14=
EXTT15=
EXTT16=
EXTT17=
EXTT18=
EXTT19=
PLAYORDER=
